<svg id="intro-svg" version="1.1" 
    xmlns="https://www.w3.org/2000/svg" 
    xmlns:xlink="https://www.w3.org/1999/xlink" x="0px" y="0px" viewbox="20 -30 800 280" enable-background="new 0 0 800 280" xml:space="preserve">

    <!-- underlines -->
    <line id="underline1" class="underline plum" x1="146" y1="176" x2="146" y2="176"/>
    <line id="underline2" class="underline blue" x1="146" y1="184" x2="146" y2="184"/>
    <line id="underline3" class="underline purple" x1="146" y1="192" x2="146" y2="192"/>
    <line id="underline4" class="underline lime" x1="146" y1="200" x2="146" y2="200"/>

    <!-- M -->
    <line id="m1" x1="131.6" y1="150" x2="131.6" y2="20"/>
    <line id="m1d1" class="dec blue" x1="150" y1="150" x2="150" y2="70" />
    <line id="m1d2" class="dec lime" x1="155" y1="130" x2="155" y2="70" />
    <line id="m2" x1="161.6" y1="100" x2="131.6" y2="20"/>
    <line id="m2d1" class="dec purple" x1="130" y1="80" x2="130" y2="62" />
    <line id="m2d2" class="dec lime" x1="135" y1="75" x2="135" y2="35" />
    <line id="m2d3" class="dec plum" x1="140" y1="60" x2="140" y2="20" />
    <line id="m3" x1="161.6" y1="100" x2="191.6" y2="20"/>
    <line id="m3d1" class="dec blue" x1="190" y1="150" x2="190" y2="70" />
    <line id="m3d2" class="dec lime" x1="200" y1="130" x2="200" y2="70" />
    <line id="m4" x1="191.6" y1="150" x2="191.6" y2="20"/>


    <!-- A -->
    <line id="a1" x1="221.6" y1="150" x2="251.6" y2="20"/>
    <line id="a2" x1="271.6" y1="150" x2="251.6" y2="20"/>
    <line id="a2d1" class="dec purple" x1="220" y1="109" x2="220" y2="109" />
    <line id="a2d2" class="dec plum" x1="220" y1="115" x2="220" y2="115" />
    <line id="a2d3" class="dec lime" x1="220" y1="121" x2="220" y2="121" />
    <line id="a3" x1="231.6" y1="100" x2="261.6" y2="100"/>
    <ellipse id="a3d1" class="dec dot blue" cx="256" cy="51" rx="0" ry="0"/>
    <ellipse id="a3d2" class="dec dot plum" cx="256" cy="61" rx="0" ry="0"/>
    <ellipse id="a3d3" class="dec dot purple" cx="256" cy="71" rx="0" ry="0"/>
    <ellipse id="a3d4" class="dec dot lime" cx="256" cy="81" rx="0" ry="0"/>


    <!-- S -->
    <path id="s1" d="M348.93,23c-15.25.6-28.87,7.94-39.89,18.19-9.36,8.71-22,23.9-10.74,36.57,2.12,2.39,5,3.43,7.93,4.41A150,150,0,0,1,321.3,88a153.45,153.45,0,0,1,25.23,14.52c7.33,5.21,12.15,12.54,12.49,21.73.31,8.53-3.5,16.56-10.81,21.07a51.27,51.27,0,0,1-34.3,6.88c-10.16-1.63-16.39-7.4-18.56-17.62-.27-1.26-2.2-.73-1.93.53,3.33,15.72,16.52,20.57,31.45,19.57,14-.94,31.39-7.26,35.27-22.27a28.89,28.89,0,0,0-2.73-21.29c-3.72-6.51-9.92-10.56-16.1-14.49a152.9,152.9,0,0,0-26.47-13.52c-4.13-1.61-9.22-2.47-13-4.88C296.2,74.52,295.18,66,297,60c1.62-5.42,6-9.83,9.81-13.8a82.69,82.69,0,0,1,13-11.13c8.72-5.92,18.56-9.68,29.14-10.1,1.28-.05,1.29-2.05,0-2Z" />
    <ellipse id="s1d1" class="dec dot blue" cx="300" cy="81" rx="0" ry="0"/>
    <ellipse id="s1d2" class="dec dot plum" cx="310" cy="91" rx="0" ry="0"/>
    <ellipse id="s1d3" class="dec dot purple" cx="330" cy="111" rx="0" ry="0"/>
    <ellipse id="s1d4" class="dec dot lime" cx="340" cy="121" rx="0" ry="0"/>
    <ellipse id="s1d5" class="dec dot blue" cx="345" cy="131" rx="0" ry="0"/>
    <ellipse id="s1d6" class="dec dot plum" cx="340" cy="141" rx="0" ry="0"/>
    <ellipse id="s1d7" class="dec dot purple" cx="330" cy="151" rx="0" ry="0"/>


    <!-- S -->
    <path id="s2" d="M427.93,23c-15.25.6-28.87,7.94-39.89,18.19-9.36,8.71-22,23.9-10.74,36.57,2.12,2.39,5,3.43,7.93,4.41A150,150,0,0,1,400.3,88a153.45,153.45,0,0,1,25.23,14.52c7.33,5.21,12.15,12.54,12.49,21.73.31,8.53-3.5,16.56-10.81,21.07a51.27,51.27,0,0,1-34.3,6.88c-10.16-1.63-16.39-7.4-18.56-17.62-.27-1.26-2.2-.73-1.93.53,3.33,15.72,16.52,20.57,31.45,19.57,14-.94,31.39-7.26,35.27-22.27a28.89,28.89,0,0,0-2.73-21.29c-3.72-6.51-9.92-10.56-16.1-14.49a152.9,152.9,0,0,0-26.47-13.52c-4.13-1.61-9.22-2.47-13-4.88C375.2,74.52,374.18,66,376,60c1.62-5.42,6-9.83,9.81-13.8a82.69,82.69,0,0,1,13-11.13c8.72-5.92,18.56-9.68,29.14-10.1,1.28-.05,1.29-2.05,0-2Z" />
    <ellipse id="s2d1" class="dec dot blue" cx="400" cy="81" rx="0" ry="0"/>
    <ellipse id="s2d2" class="dec dot plum" cx="410" cy="91" rx="0" ry="0"/>
    <ellipse id="s2d3" class="dec dot purple" cx="430" cy="111" rx="0" ry="0"/>
    <ellipse id="s2d4" class="dec dot lime" cx="440" cy="121" rx="0" ry="0"/>
    <ellipse id="s2d5" class="dec dot blue" cx="445" cy="131" rx="0" ry="0"/>
    <ellipse id="s2d6" class="dec dot plum" cx="440" cy="141" rx="0" ry="0"/>
    <ellipse id="s2d7" class="dec dot purple" cx="430" cy="151" rx="0" ry="0"/>


    <!-- A -->
    <line id="a4" x1="451.6" y1="150" x2="481.6" y2="20"/>
    <line id="a5" x1="511.6" y1="150" x2="481.6" y2="20"/>
    <line id="a5d1" class="dec purple" x1="470" y1="20" x2="470" y2="50" />
    <line id="a5d2" class="dec plum" x1="481" y1="30" x2="470" y2="30" />
    <line id="a5d3" class="dec pink" x1="470" y1="40" x2="470" y2="40" />
    <line id="a6" x1="461.6" y1="100" x2="491.6" y2="100"/>
    <ellipse id="a6d1" class="dec dot blue" cx="486" cy="91" rx="0" ry="0"/>
    <ellipse id="a6d2" class="dec dot plum" cx="490" cy="101" rx="0" ry="0"/>
    <ellipse id="a6d3" class="dec dot purple" cx="496" cy="121" rx="0" ry="0"/>
    <ellipse id="a6d4" class="dec dot red" cx="499" cy="131" rx="0" ry="0"/>


    <!-- G -->
    <path id="g1" d="M604.68,22.87c-32.58-1.17-64.49,13.86-77.91,44.82-11.6,26.75-5.25,63.64,23.14,77,15.47,7.25,33.22,6.66,49.86,5.7,1.35-.08,1.35-2.18,0-2.1-13.61.78-27.69,1.35-40.93-2.49a47.25,47.25,0,0,1-31.57-28.94c-10.86-28.44,1.27-61,25.75-78.09,15.07-10.55,33.5-14.4,51.66-13.75,1.35,0,1.35-2.05,0-2.1Z" />
    <path id="g2" d="M574.66,87.24l-3.31-2.59-.92,1.59,21.92,5.93c6.22,1.68,15.77,2.66,19.86,8.15,5,6.7-1,15.22-5,20.87-3.8,5.37-7.55,10.77-11,16.35a281.34,281.34,0,0,0-31.84,71.32,1,1,0,0,0,1.83.5,280.31,280.31,0,0,1,39.56-82.83c5.13-7.34,15.85-19.95,7-28.63-4.34-4.28-11.4-5.27-17-6.79l-24.78-6.71c-.85-.23-1.71,1-.92,1.59l3.31,2.59c1,.74,2.31-.59,1.34-1.34Z" />
    <line id="g2d1" class="dec red" x1="570" y1="75" x2="615" y2="90" />
    <line id="g2d2" class="dec green" x1="575" y1="145" x2="605" y2="105" />
    <line id="g2d3" class="dec pink" x1="565" y1="210" x2="625" y2="105" />

    <!-- E -->
    <line id="e1" x1="641.6" y1="150" x2="641.6" y2="20"/>
    <line id="e2" x1="641.6" y1="20" x2="701.6" y2="20"/>
    <ellipse id="e2d1" class="dec dot blue" cx="645" cy="20" rx="0" ry="0"/>
    <ellipse id="e2d2" class="dec dot plum" cx="655" cy="20" rx="0" ry="0"/>
    <ellipse id="e2d3" class="dec dot purple" cx="665" cy="20" rx="0" ry="0"/>
    <ellipse id="e2d4" class="dec dot lime" cx="685" cy="20" rx="0" ry="0"/>
    <line id="e3" x1="641.6" y1="100" x2="681.6" y2="100"/>
    <ellipse id="e3d1" class="dec dot green" cx="645" cy="95" rx="0" ry="0"/>
    <ellipse id="e3d2" class="dec dot plum" cx="650" cy="95" rx="0" ry="0"/>
    <ellipse id="e3d3" class="dec dot pink" cx="660" cy="95" rx="0" ry="0"/>
    <ellipse id="e3d4" class="dec dot red" cx="665" cy="95" rx="0" ry="0"/>
    <line id="e4" x1="641.6" y1="150" x2="701.6" y2="150"/>
    <ellipse id="e4d1" class="dec dot green" cx="645" cy="145" rx="0" ry="0"/>
    <ellipse id="e4d2" class="dec dot plum" cx="665" cy="145" rx="0" ry="0"/>
    <ellipse id="e4d3" class="dec dot pink" cx="685" cy="145" rx="0" ry="0"/>
    <ellipse id="e4d4" class="dec dot red" cx="705" cy="145" rx="0" ry="0"/>


    <!-- therapy for better health -->
    <text x="130" y="203" font-size="27" id="text">
        <tspan dx="-580" dy="20">t</tspan>
        <tspan dy="-0.7">h</tspan>
        <tspan dy="-0.7">e</tspan>
        <tspan dy="-0.7">r</tspan>
        <tspan dy="-0.7">a</tspan>
        <tspan dy="-0.7">p</tspan>
        <tspan dy="-0.7">y</tspan>
        <tspan dy="-0.7">&nbsp;</tspan>
        <tspan dy="-0.7">f</tspan>
        <tspan dy="-0.7">o</tspan>
        <tspan dy="-0.7">r</tspan>
        <tspan dy="-0.7">&nbsp;</tspan>
        <tspan dy="-0.7">b</tspan>
        <tspan dy="-0.7">e</tspan>
        <tspan dy="-0.7">t</tspan>
        <tspan dy="-0.7">t</tspan>
        <tspan dy="-0.7">e</tspan>
        <tspan dy="-0.7">r</tspan>
        <tspan dy="-0.7">&nbsp;</tspan>
        <tspan dy="-0.7">h</tspan>
        <tspan dy="-0.7">e</tspan>
        <tspan dy="-0.7">a</tspan>
        <tspan dy="-0.7">l</tspan>
        <tspan dy="-0.7">t</tspan>
        <tspan dy="-0.7">h</tspan>
    </text>

</svg>